# xmcd
#
# Track frame offsets: 
#        150
#        15535
#        30025
#        47862
#        67410
#        83737
#        98662
#        114225
#        133262
#        148485
#        167245
#
# Disc length: 2425 seconds
#
# Revision: 2
# Processed by: cddbd v1.5.2PL0 Copyright (c) Steve Scherf et al.
# Submitted via: ExactAudioCopy v0.99pb5
#
DISCID=9509770b
DTITLE=Clover Leaf - Born A Rider
DYEAR=1993
DGENRE=Country Pop
TTITLE0=Born a rider
TTITLE1=Steps of the time
TTITLE2=Part of me is part of you
TTITLE3=Travelin' kind
TTITLE4=Falling in love
TTITLE5=Love's gone astray
TTITLE6=Doing it my way
TTITLE7=Going, but I won't be long
TTITLE8=Gettin' up
TTITLE9=Robert said...
TTITLE10=Turning in circles
EXTD=
EXTT0=
EXTT1=
EXTT2=
EXTT3=
EXTT4=
EXTT5=
EXTT6=
EXTT7=
EXTT8=
EXTT9=
EXTT10=
PLAYORDER=
